# xmcd
#
# Track frame offsets:
#	150
#	15283
#	32490
#	47848
#	61990
#	76217
#	93318
#	106820
#	123178
#	138311
#	153087
#
# Disc length: 2610 seconds
#
# Revision: 0
# Processed by: cddbd v1.5.2PL0 Copyright (c) Steve Scherf et al.
# Submitted via: dBpowerAMP V4.0
#
DISCID=740a300b
DTITLE=Charley Jenkins - 'Round Here
DYEAR=1900
DGENRE=Country
TTITLE0=Me Again
TTITLE1=Cowboy Down
TTITLE2=I forget Where I was Going
TTITLE3=Round Here
TTITLE4=Love is for Everyone
TTITLE5=One I Don't
TTITLE6=Yippi-Ki-Yi-Yo
TTITLE7=It's in Your Hands
TTITLE8=Hero at Home
TTITLE9=Its the Nine
TTITLE10=As Long as I'm with You
EXTD=
EXTT0=
EXTT1=
EXTT2=
EXTT3=
EXTT4=
EXTT5=
EXTT6=
EXTT7=
EXTT8=
EXTT9=
EXTT10=
PLAYORDER=
